<?xml version="1.0" encoding="iso-8859-1"?>
<!-- Uploaded to: SVG Repo, www.svgrepo.com, Generator: SVG Repo Mixer Tools -->
<!DOCTYPE svg PUBLIC "-//W3C//DTD SVG 1.1//EN" "http://www.w3.org/Graphics/SVG/1.1/DTD/svg11.dtd">
<svg fill="#000000" version="1.1" id="Capa_1" xmlns="http://www.w3.org/2000/svg" xmlns:xlink="http://www.w3.org/1999/xlink" 
	 width="800px" height="800px" viewBox="0 0 403.85 403.85"
	 xml:space="preserve">
<g>
	<g>
		<path d="M331.092,22.23c0.785-0.886,1.698-1.622,2.779-2.199l-0.391,5.065c-0.77-0.243-1.593-0.372-2.426-0.372
			c-0.237,0-0.479,0.011-0.738,0.032c-0.327,0.026-0.633,0.061-0.96,0.092C329.842,23.894,330.411,23.008,331.092,22.23z"/>
		<path d="M302.367,247.496c-5.348-3.47-10.589-7.214-15.646-11.212c0.564-10.979,1.387-21.905,2.226-32.558
			c0.517-6.629,1.007-13.06,1.429-19.356c0.839,0.859,1.524,1.582,1.883,1.954c6.613,9.903,18.479,27.073,29.933,40.784
			C318.915,234.875,314.232,243.129,302.367,247.496z"/>
		<path d="M272.788,202.455c-0.527,6.692-1.049,13.601-1.519,20.614c-7.657-7.056-14.812-14.365-21.378-21.484
			c-1.081-15.071-1.608-31.081-1.282-48.141c10.046,4.844,19.09,11.135,26.336,16.957
			C274.497,180.52,273.664,191.254,272.788,202.455z"/>
		<path d="M214.026,145.312c6.271-0.287,12.504,0.609,18.562,2.196c-0.337,11.887-0.332,23.351,0.021,34.322
			c-3.939-4.712-7.525-9.1-10.6-12.878c-3.597-4.427-6.64-8.171-9.07-10.95c-3.539-4.068-7.31-7.712-11.38-10.974
			C205.642,146.055,209.803,145.478,214.026,145.312z"/>
		<path d="M94.56,139.01c30.364-0.854,53.541,1.587,71.437,7.391c-13.664,10.114-23.572,22.589-30.705,31.569
			c-2.507,3.148-4.667,5.875-6.399,7.739c-5.904,6.349-10.666,13.998-14.133,20.463c-2.56-31.701-18.549-52.642-31.812-64.776
			C86.346,139.944,90.185,139.129,94.56,139.01z"/>
		<polygon points="79.704,292.963 89.088,301.49 83.602,308.509 75.393,300.599 		"/>
		<path d="M49.458,220.891c-0.438-0.676-0.804-1.197-0.958-1.387c-2.726-3.46-7.673-4.029-11.198-1.382
			c-3.518,2.668-4.208,7.726-1.617,11.296c0.153,0.211,3.715,5.226,1.74,12.771c-1.474,5.675-6.156,13.469-18.729,22.317
			c3.096-15.034,2.117-37.356-10.847-69.348l-1.458-3.494c-6.955-16.448-11.744-38.475,4.957-50.021
			c14.218-9.843,36.861-7.256,44.097-0.361c0.609,0.578,1.308,1.063,2.062,1.432c0.021,0.01,0.113,0.053,0.256,0.124
			C45.095,163.06,45.904,195.202,49.458,220.891z"/>
		<path d="M62.489,288.169l10.573-26.436c0.675-1.693,0.759-3.544,0.253-5.29c-6.049-20.661-17.685-78.144-2.241-104.14
			c13.553,11.939,31.757,35.693,27.119,75.025l-34.857,61.657L62.489,288.169z"/>
		<path d="M48.361,353.628c-2.051,2.626-2.283,6.255-0.577,9.123l9.832,16.548H43.95v-23.055l23.225-41.091l6.415,6.181
			L48.361,353.628z"/>
		<path d="M113.069,323.28l3.343,15.378l-9.904,19.812l-2.302-3.121l5.05-15.868c0.941-2.948,0.118-6.165-2.099-8.29l-11.815-11.375
			l5.767-7.393L113.069,323.28z"/>
		<path d="M229.688,241.906c-43.725-12.034-74.605-12.583-91.855-1.624c-7.203,4.598-10.085,9.998-11.214,13.162l-27.535,35.237
			l-10.837-9.83l34.425-51.638c0.34-0.506,0.615-1.044,0.831-1.613c0.063-0.169,6.76-17.561,17.257-28.875
			c2.154-2.323,4.499-5.271,7.209-8.683c8.366-10.525,19.599-24.674,35.593-33.826c6.462,3.871,12.105,8.611,17.149,14.412
			c2.334,2.679,5.258,6.275,8.723,10.542c6.412,7.889,14.786,18.143,24.647,29.111c1.028,12.667,2.479,24.638,4.235,35.902
			C235.553,243.488,232.668,242.733,229.688,241.906z"/>
		<path d="M252.454,227.52c5.621,5.505,11.56,10.937,17.771,16.168c-0.084,2.099-0.169,4.197-0.211,6.307
			c-4.44-0.442-9.281-1.128-14.55-2.088C254.342,241.394,253.351,234.554,252.454,227.52z"/>
		<path d="M300.438,383.819v-9.903c0-1.703-0.544-3.386-1.562-4.783c-0.38-0.517-25.534-35.796-40.157-104.304
			c3.966,0.597,7.741,1.05,11.307,1.371c1.002,41.477,10.024,83.184,43.216,114.187l0.205,3.433H300.438z"/>
		<path d="M323.382,327.293c-1.097-0.628-2.362-1.013-3.713-1.071c-4.261-0.253-8.047,3.085-8.421,7.415
			c-0.017,0.185-0.026,0.433-0.026,0.686v17.993c0,0.728,0.174,1.413,0.363,2.088c-18.789-25.086-24.638-55.914-25.429-87.734
			c5.1-0.2,9.624-0.791,13.764-1.672c11.781,6.972,24.137,12.557,36.94,15.699c3.84,2.537,11.428,8.934,12.245,16.258
			c0.564,5.047-2.246,10.468-8.306,16.153C331.402,321.893,326.108,325.679,323.382,327.293z"/>
		<path d="M360.918,269.813c4.087,9.745,9.598,29.014,0.56,48.494c-9.677,20.872-24.574,25.555-34.051,26.22v-1.176
			c4.867-1.978,12.092-6.882,24.432-18.426c10.03-9.392,14.518-19.464,13.331-29.874c-1.978-17.418-19.163-27.812-21.104-28.94
			c-0.695-0.411-1.455-0.707-2.23-0.886c-7.684-1.783-15.219-4.673-22.623-8.227c6.645-4.684,11.206-10.674,14.702-17.139
			c3.977,3.754,7.615,6.528,10.584,7.583C347.302,248.445,355.238,256.265,360.918,269.813z"/>
		<path d="M327.253,207.375c-7.225-9.387-15.014-20.258-21.88-30.55c-0.206-0.313-0.433-0.604-0.681-0.88
			c-0.563-0.63-5.441-6.009-13.331-12.885c0.021-0.771,0.063-1.564,0.074-2.331c0.369-27.335,4.872-45.054,13.389-52.671
			c2.616-2.35,5.754-3.776,9.351-4.641c-0.527,0.168-1.045,0.379-1.535,0.659c-2.077,1.184-3.522,3.219-3.966,5.563
			c-6.217,33.468-0.722,44.307,7.752,55.959c1.092,1.495,2.184,3.019,3.254,4.698C324.168,177.533,328.054,193.232,327.253,207.375z
			"/>
		<path d="M319.464,103.525c-1.087-0.397-2.226-0.545-3.354-0.469c2.421-0.422,4.989-0.686,7.857-0.686
			c3.286,0,6.877,0.237,10.79,0.614c4.999,0.487,10.42,2.61,15.878,5.698C340.863,109.656,327.311,106.431,319.464,103.525z"/>
		<path d="M336.317,86.856c-14.021-1.371-30.011-1.885-42.304,9.131c-11.079,9.914-16.985,27.498-18.414,54.746
			c-7.716-5.353-16.622-10.536-26.283-14.51c1.481-11.146,11.986-73.436,62.301-91.067c0.563,1.798,1.75,3.349,3.354,4.382
			c18.604,11.92,43.732,33.407,46.965,46.983C353.688,91.447,344.913,87.687,336.317,86.856z"/>
		<path d="M396.239,126.056c-4.672-5.137-11.364-11.979-19.174-18.513c0.147-0.438,0.301-0.881,0.433-1.329
			c7.177-24.223-28.683-52.908-46.301-65.274c0.189-0.021,0.358-0.037,0.559-0.055c1.351-0.116,2.595-0.559,3.665-1.245
			c0.454,0.425,0.96,0.796,1.509,1.115c18.146,10.336,64.499,43.456,66.92,75.028L396.239,126.056z"/>
	</g>
</g>
</svg>