<?xml version="1.0" encoding="iso-8859-1"?>
<!-- Uploaded to: SVG Repo, www.svgrepo.com, Generator: SVG Repo Mixer Tools -->
<!DOCTYPE svg PUBLIC "-//W3C//DTD SVG 1.1//EN" "http://www.w3.org/Graphics/SVG/1.1/DTD/svg11.dtd">
<svg fill="#000000" version="1.1" id="Capa_1" xmlns="http://www.w3.org/2000/svg" xmlns:xlink="http://www.w3.org/1999/xlink" 
	 width="800px" height="800px" viewBox="0 0 35.986 35.986"
	 xml:space="preserve">
<g>
	<path d="M5.219,16.111c0.98,1.83,1.271,2.725,1.282,2.762c0.039,0.125-0.007,0.262-0.114,0.337
		c-0.052,0.036-0.11,0.054-0.172,0.054c-0.063,0-0.129-0.021-0.183-0.062c-1.135-0.873-1.367-2.833-1.376-2.917
		c-0.018-0.144,0.071-0.277,0.209-0.32C5.001,15.923,5.151,15.984,5.219,16.111z M33.282,32.559
		c-0.019,0.144-0.136,0.252-0.277,0.264c-0.143,0.008-0.271-0.082-0.311-0.221c-0.441-1.601-1.438-1.444-2.492-1.286
		c-0.398,0.062-0.777,0.12-1.104,0.063c-2.069-0.345-2.797-2.64-3.026-3.756c-2.07,1.914-5.125,2.077-5.263,2.083
		c-0.371-0.066-0.573-0.038-0.686,0.078c-0.23,0.25-0.119,0.892-0.062,1.097c0.009,0.026,0.013,0.054,0.013,0.082
		c0,1.736-4.336,2.921-5.523,3.213c-0.829,1.512-2.391,1.797-2.459,1.81c-0.015,0-0.027,0-0.043,0c-1.359,0-2.011-0.207-2.154-0.665
		c-0.141-0.443,0.296-0.831,0.473-0.969c0.823-1.291,2.361-1.579,2.428-1.592c1.749-0.501,2.799-1.61,3.103-1.969
		c-0.542-1.805-0.263-3.36,0.217-4.53c-4.065-1.929-5.818-5.501-6.126-6.188c-0.66,0.135-1.287,0.13-1.676,0.106l0.053,0.377
		c-0.009,0.205-0.043,0.627-0.365,0.777c-0.047,0.021-0.095,0.035-0.143,0.041c-0.118,0.339-0.31,0.536-0.567,0.584
		c-0.612,0.114-1.2-0.698-1.423-1.032c-0.948-0.587-1.478-1.113-1.5-1.136c-0.021-0.022-0.04-0.048-0.055-0.076l-1.45-2.847
		c-0.628-1.376,0.706-2.614,0.763-2.666c0.246-0.323,0.572-0.511,0.936-0.522c0.614-0.023,1.004,0.439,1.05,0.491
		c0.413,0.438,0.782,0.656,1.031,0.764c0.08-2,1.37-3.117,1.881-3.483c-0.236-0.896-0.096-2.03,0.081-2.872
		C7.917,9.041,7.169,9.065,6.822,9.045c-0.339,0.456-0.711,0.71-1.108,0.757C5.225,9.859,4.9,9.574,4.863,9.541
		C4.368,9.221,4.061,8.773,3.989,8.237c-0.127-0.942,0.54-1.823,0.706-2.025c0.763-1.892,1.57-3.067,1.997-3.612L6.263,2.466
		C6.16,2.434,6.083,2.35,6.061,2.246C6.038,2.14,6.073,2.032,6.152,1.958c0.494-0.449,1.183-0.462,1.555-0.432l0.459-1.325
		c0.038-0.11,0.137-0.188,0.252-0.2c0.126-0.013,0.229,0.045,0.289,0.144L9.452,1.39c6.242,1.944,6.626,6.656,6.812,8.928
		c0.434,5.308,2.111,5.804,3.89,6.327c0.192,0.059,0.387,0.115,0.577,0.178c6.601,2.176,6.566,5.65,6.546,8.188
		c-0.021,2.213,1.479,2.758,2.473,3.12C33.612,29.546,33.286,32.531,33.282,32.559z M32.391,31
		c-0.358-0.771-1.135-1.674-2.785-2.276c-1.075-0.392-2.959-1.075-2.936-3.667c0.023-2.527,0.053-5.621-6.133-7.66
		c-0.185-0.061-0.371-0.115-0.562-0.171c-1.805-0.532-3.85-1.136-4.316-6.854c-0.176-2.153-0.541-6.632-6.499-8.437
		C9.09,1.915,9.029,1.867,8.99,1.802L8.516,1.01L8.187,1.96C8.138,2.102,7.993,2.188,7.838,2.156
		c-0.004-0.001-0.31-0.063-0.643-0.021l0.098,0.031c0.1,0.031,0.175,0.111,0.2,0.211c0.026,0.1-0.002,0.207-0.073,0.282
		C7.409,2.671,6.264,3.895,5.227,6.485c-0.014,0.031-0.03,0.061-0.054,0.086C5.166,6.579,4.469,7.385,4.575,8.164
		c0.049,0.359,0.261,0.657,0.647,0.911c0.044,0.034,0.203,0.167,0.421,0.135c0.25-0.033,0.518-0.255,0.775-0.641
		C6.481,8.471,6.6,8.421,6.714,8.438C6.775,8.45,8.188,8.649,8.93,7.351c0.076-0.134,0.239-0.188,0.384-0.125
		C9.455,7.29,9.523,7.45,9.475,7.595c-0.009,0.024-0.821,2.496-0.324,3.884c0.049,0.137-0.007,0.288-0.131,0.36
		c-0.077,0.045-1.886,1.131-1.785,3.487c0.004,0.086-0.029,0.169-0.092,0.229c-0.063,0.061-0.146,0.093-0.231,0.083
		c-0.083-0.007-0.839-0.091-1.751-1.06c-0.081-0.09-0.358-0.312-0.591-0.295c-0.175,0.006-0.347,0.117-0.512,0.329
		c-0.045,0.046-1.103,1.032-0.661,1.999l1.422,2.79c0.127,0.118,0.624,0.568,1.414,1.053c0.039,0.021,0.072,0.056,0.097,0.094
		c0.313,0.487,0.714,0.835,0.845,0.825c0,0,0.097-0.046,0.167-0.4c0.021-0.1,0.09-0.183,0.185-0.22
		c0.069-0.025,0.146-0.027,0.212-0.003c0.01-0.037,0.021-0.092,0.027-0.172l-0.104-0.688c-0.014-0.093,0.02-0.187,0.085-0.254
		C7.813,19.573,7.914,19.542,8,19.553c0.021,0.002,2.112,0.287,3.285-0.696c0.126-0.104,0.316-0.091,0.422,0.036
		s0.09,0.316-0.037,0.424c-0.328,0.274-0.708,0.469-1.098,0.602c0.379,0.798,2.105,4.051,5.786,5.803
		c0.562-1.108,1.231-1.755,1.246-1.769c0.121-0.113,0.31-0.109,0.424,0.012c0.114,0.121,0.108,0.311-0.012,0.424
		c-0.111,0.105-2.721,2.633-1.505,6.378c0.028,0.092,0.014,0.191-0.043,0.271c-0.049,0.065-1.216,1.646-3.544,2.312
		c-0.042,0.01-1.41,0.272-2.082,1.372c-0.021,0.035-0.05,0.065-0.083,0.089c-0.157,0.112-0.295,0.281-0.296,0.341
		c0.004,0,0.181,0.241,1.572,0.242c-0.017-0.002,1.374-0.271,2.04-1.605c0.04-0.079,0.112-0.138,0.199-0.158
		c2.131-0.507,5.122-1.65,5.192-2.626c-0.061-0.235-0.248-1.126,0.211-1.622c0.256-0.272,0.633-0.366,1.131-0.271
		c0.359-0.024,3.455-0.299,5.23-2.312c0.078-0.089,0.201-0.126,0.315-0.087c0.113,0.036,0.193,0.136,0.207,0.255
		c0.005,0.035,0.386,3.455,2.627,3.828c0.232,0.04,0.564-0.012,0.916-0.065C30.786,30.622,31.686,30.483,32.391,31z"/>
</g>
</svg>