<?xml version="1.0" encoding="iso-8859-1"?>
<!-- Uploaded to: SVG Repo, www.svgrepo.com, Generator: SVG Repo Mixer Tools -->
<!DOCTYPE svg PUBLIC "-//W3C//DTD SVG 1.1//EN" "http://www.w3.org/Graphics/SVG/1.1/DTD/svg11.dtd">
<svg fill="#000000" version="1.1" id="Capa_1" xmlns="http://www.w3.org/2000/svg" xmlns:xlink="http://www.w3.org/1999/xlink" 
	 width="800px" height="800px" viewBox="0 0 229.549 229.549"
	 xml:space="preserve">
<g>
	<path d="M202.982,100.328c2.689-1.002,5-3.783,6.679-7.941l19.571-29.524c0.484-0.733,0.407-1.693-0.178-2.34
		c-0.331-0.37-33.502-36.092-72.768-1.283c-8.316,7.359-18.252,18.785-19.86,32.361c-9.439-2.899-44.88-11.718-71.804,9.056
		C59.533,95.312,39.845,76.93,19.296,88.35C19.181,88.382,8.399,91.27,3.5,84.023c-0.479-0.703-1.363-0.999-2.164-0.757
		C0.532,83.521-0.012,84.271,0,85.12c0,0.41,0.174,10.16,7.439,16.686c4.92,4.418,11.801,6.236,20.445,5.388l1.566-0.177
		c13.878-1.723,17.833,2.702,21.317,6.59c2.852,3.18,5.798,6.467,12.93,4.345c4.134,4.563,8.807,11.674,7.427,14.907
		c-0.896,2.121-4.637,2.564-7.616,2.564c-1.38,0-2.293,0-30.771,47.21c-0.354,0.597-0.369,1.336-0.023,1.933
		c0.34,0.597,0.975,0.97,1.664,0.97H68.37c1.059,0,1.913-0.863,1.913-1.909c0-0.272-0.104-4.989-3.777-9.31H98.13
		c1.058,0,1.912-0.863,1.912-1.909c0-0.373-0.103-9.203-9.628-13.778c-0.03-0.006-0.848-0.254-1.162-1.094
		c-0.292-0.774-0.419-2.647,2.027-6.501c0.222-0.355,0.21-0.745,0.192-1.135c3.523-1.1,6.972-2.465,9.986-4.215
		c5.169,0.945,14.476,1.607,23.129-3.222c9.315,3.807,22.479,7.312,35.932,4.734l-23.354,35.099
		c-0.396,0.585-0.432,1.342-0.101,1.962c0.331,0.627,0.987,1.011,1.69,1.011h33.68c1.022,0,1.873-0.804,1.909-1.832
		c0.018-0.302,0.236-7.59-9.209-15.209c-0.124-0.1-0.236-0.177-0.379-0.242c-0.088-0.614-0.023-3.588,6.55-12.554l9.729-14.913
		c6.426-3.41,17.821-7.696,22.396-5.172c0.201,0.112,0.39,0.248,0.562,0.378c1.224,0.993,1.478,1.667,1.442,1.892
		c-0.036,0.23-0.497,0.738-1.555,1.135c-1.75,0.65-3.783,0.526-4.428-0.012c-0.567-0.473-1.354-0.591-2.004-0.289
		c-0.668,0.295-1.117,0.934-1.141,1.666l-1.211,26.403c-0.03,0.65,0.271,1.271,0.798,1.644c0.544,0.378,1.218,0.461,1.826,0.225
		c0.68-0.266,16.592-6.75,18.743-23.288c1.324-2.211,7.436-13.217,3.398-20.528c-2.252-4.096-7.081-6.171-14.34-6.171
		c-0.366,0-1.654,0.165-3.369,0.401c-1.654,0.237-5.142,0.733-7.654,0.94c2.353-3.842,5.521-11.092,3.387-19.952
		c0.267,0.169,0.562,0.34,0.857,0.509C198.903,100.396,200.653,101.206,202.982,100.328z M60.642,169.847
		c-0.104-0.035-0.975-0.308-1.235-1.294c-0.34-1.277-0.133-5.237,8.89-14.57c0.969-0.065,2.766-0.184,5.075-0.449
		c-5.272,8.6-9.806,16.106-10.672,17.543C62.04,170.651,61.422,170.219,60.642,169.847z M85.712,159.018
		c1.058,2.607,3.508,3.27,3.381,3.181c4.705,2.275,6.295,6.017,6.835,8.28H67.534c2.24-3.705,6.351-10.467,10.713-17.578
		c0-0.006,0-0.012,0-0.018c2.64-0.402,5.562-0.945,8.565-1.679C85.269,154.284,84.864,156.926,85.712,159.018z M168.144,153.238
		c-7.803,10.634-7.69,14.393-6.928,16.29c0.39,0.981,1.094,1.578,1.75,1.874c5.006,4.12,6.685,7.891,7.252,10.024h-27.904
		l24.109-36.221c0.048-0.071,0.089-0.143,0.13-0.219c0.019,0,0.036,0,0.06,0c2.92,0,5.556-0.55,7.731-1.26L168.144,153.238z
		 M197.1,84.138c0.124,0.219,0.349,0.659,0.373,1.206c0.047,1.011-0.604,2.033-2.093,3.171c-0.136,0.133-0.939,0.919-1.501,2.166
		c-0.29-0.455-0.598-0.907-0.917-1.368c-0.401-1.283-2.062-7.444,1.479-13.062C194.222,79.096,194.712,82.164,197.1,84.138z
		 M197.189,93.448c-0.147-1.091,0.697-2.016,0.668-2.016c2.016-1.525,3.156-3.287,3.398-5.243c0.313-2.559-1.099-4.383-1.602-4.909
		c-2.719-2.04-0.863-8.429,0.012-10.5c0.331-0.78,0.106-1.688-0.556-2.229c-0.656-0.538-1.602-0.585-2.287-0.095
		c-12.324,8.411-7.441,22.254-7.4,22.394c0.06,0.159,0.136,0.316,0.242,0.461c11.349,15.802,0.313,28.307-0.153,28.838
		c-0.55,0.598-0.65,1.479-0.272,2.188c0.911,1.72,2.92,1.744,13.424,0.26c1.395-0.201,2.482-0.36,2.831-0.378
		c5.751,0,9.445,1.401,10.977,4.179c2.76,4.988-1.602,13.979-3.505,17.018c-0.148,0.242-0.249,0.514-0.284,0.804
		c-1.206,10.574-9.268,16.627-13.624,19.169l0.939-20.487c1.762,0.254,3.694-0.023,5.202-0.591c2.287-0.846,3.718-2.306,4.007-4.103
		c0.213-1.294-0.106-3.298-2.843-5.509c-0.354-0.283-0.745-0.543-1.123-0.75c-7.979-4.393-24.606,4.379-26.469,5.396
		c-0.047,0.023-0.053,0.088-0.089,0.111c-0.053,0.03-0.112,0.013-0.147,0.048c-0.662,0.491-16.278,11.78-31.38-7.696
		c-0.65-0.851-1.868-0.992-2.684-0.348c-0.846,0.649-0.993,1.855-0.349,2.688c4.899,6.313,9.918,9.759,14.611,11.455
		c-12.613,2.093-24.967-1.437-33.579-5.054c-0.562-0.242-1.2-0.195-1.732,0.131c-5.999,3.623-12.551,4.096-17.431,3.724
		c0.795-0.704,1.531-1.448,2.181-2.253c2.855-3.54,3.911-7.624,3.148-12.146c-0.184-1.046-1.188-1.749-2.217-1.572
		c-1.04,0.184-1.75,1.171-1.566,2.217c0.591,3.435-0.183,6.413-2.35,9.091c-8.946,11.083-37.569,12.442-37.853,12.454
		c-0.49,0.023-0.946,0.23-1.289,0.579c-8.222,8.376-11.597,14.553-10.338,18.903c0.73,2.512,2.849,3.635,3.588,3.753
		c4.702,2.281,6.301,6.017,6.839,8.287H37.737c9.655-15.96,23.673-38.751,26.548-42.47c5.538-0.142,9.011-1.784,10.332-4.888
		c3.032-7.134-7.767-18.648-9.008-19.931c-0.515-0.544-1.318-0.722-2.021-0.473c-5.615,1.997-7.173,0.254-9.992-2.903
		c-3.706-4.137-8.778-9.797-24.642-7.837l-1.475,0.171c-7.506,0.739-13.396-0.744-17.481-4.4c-2.87-2.562-4.406-5.822-5.234-8.541
		c6.673,4.014,15.179,1.699,15.953,1.439c21.391-11.836,41.993,12.38,42.2,12.628c0.677,0.804,1.876,0.919,2.686,0.254
		c29.548-24.243,71.414-8.934,71.839-8.777c0.567,0.207,1.212,0.145,1.732-0.201c0.514-0.337,0.833-0.902,0.856-1.52
		c0.55-13.314,10.516-24.84,18.778-32.151c33.095-29.341,60.681-5.645,66.366-0.071l-18.891,28.561
		c-2.423,5.816-4.965,6.641-5.792,6.307C198.513,95.789,197.337,94.562,197.189,93.448z"/>
</g>
</svg>