<?xml version="1.0" encoding="iso-8859-1"?>
<!-- Uploaded to: SVG Repo, www.svgrepo.com, Generator: SVG Repo Mixer Tools -->
<!DOCTYPE svg PUBLIC "-//W3C//DTD SVG 1.1//EN" "http://www.w3.org/Graphics/SVG/1.1/DTD/svg11.dtd">
<svg fill="#000000" version="1.1" id="Capa_1" xmlns="http://www.w3.org/2000/svg" xmlns:xlink="http://www.w3.org/1999/xlink" 
	 width="800px" height="800px" viewBox="0 0 31.656 31.656"
	 xml:space="preserve">
<g>
	<g>
		<path d="M14.358,31.656c-0.21,0-0.41-0.014-0.595-0.041l-0.676-0.098l0.345-0.59c0.922-1.572-0.968-3.059-1.166-3.207
			c-0.298-0.174-2.522-1.58-4.568-5.764l-0.011-0.023c-1.417-3.359-1.451-6.857-0.1-10.114c0.817-1.969,1.956-3.425,2.768-4.3
			c0.936-1.009,1.942-1.791,2.691-2.096c2.003-0.812,4.672-4.368,4.698-4.404L18.503,0l0.216,4.004l3.431,2.958l0.273,1.595
			l2.635,4.034v2.028l-1.82,1.497l-1.893-1.846c-0.139,0.005-0.338,0.01-0.581,0.01c-1.491,0-3.443-0.188-4.278-1.075
			c-0.559-0.595-0.912-1.181-1.079-1.858c0.002,4.071,5.375,9.14,5.442,9.202l0.035,0.033l0.026,0.039
			c2.049,2.918,1.6,5.223,0.862,6.643C20.282,30.129,16.509,31.656,14.358,31.656z M8.529,21.564
			c2.023,4.131,4.188,5.355,4.21,5.367l0.047,0.029c0.867,0.623,2.189,2.127,1.723,3.771c1.897-0.07,5.177-1.449,6.447-3.893
			c0.897-1.725,0.638-3.627-0.771-5.654c-0.299-0.283-2.251-2.172-3.797-4.582c-2.256-3.518-2.504-6.429-0.716-8.416l1.213-1.349
			L16.46,8.604c-0.527,2.189-0.197,3.026,0.693,3.974c0.462,0.492,1.812,0.786,3.608,0.786c0.434,0,0.727-0.019,0.729-0.019
			l0.204-0.013l1.593,1.553l0.851-0.698v-1.32L21.549,8.9L21.3,7.442l-3.478-2.998l-0.103-1.92
			c-0.993,1.186-2.778,3.122-4.328,3.751c-1.052,0.427-3.586,2.594-4.956,5.896C7.165,15.235,7.196,18.395,8.529,21.564z"/>
	</g>
</g>
</svg>