<?xml version="1.0" encoding="iso-8859-1"?>
<!-- Uploaded to: SVG Repo, www.svgrepo.com, Generator: SVG Repo Mixer Tools -->
<!DOCTYPE svg PUBLIC "-//W3C//DTD SVG 1.1//EN" "http://www.w3.org/Graphics/SVG/1.1/DTD/svg11.dtd">
<svg fill="#000000" version="1.1" id="Capa_1" xmlns="http://www.w3.org/2000/svg" xmlns:xlink="http://www.w3.org/1999/xlink" 
	 width="800px" height="800px" viewBox="0 0 217.711 217.712"
	 xml:space="preserve">
<g>
	<path d="M214.615,54.574c-0.798-4.734-6.218-20.628-10.231-32.172c-2.453-7.058-8.818-14.156-12.193-17.242
		c-0.621-0.562-1.531-0.626-2.223-0.177c-0.697,0.455-0.987,1.33-0.716,2.116c0.13,0.355,0.243,0.75,0.337,1.082
		c-13.76-10.905-26.433-7.813-27-7.666c-0.863,0.219-1.425,1.04-1.354,1.927c0.018,0.178,0.059,0.349,0.124,0.502
		c-1.561,0.13-2.997,0.609-4.788,1.242l-0.467,0.171c-11.343,4.02-22.343,3.706-22.461,3.706c-0.674,0-1.359,0.354-1.673,0.97
		c-0.325,0.62-0.266,1.371,0.148,1.927c1.673,2.252,3.765,3.677,5.757,4.569c-0.36,0.071-0.691,0.142-1.011,0.195
		c-0.774,0.142-1.413,0.272-2.01,0.461c-9.215,2.914-11.774,10.001-11.887,10.302c-0.194,0.556-0.071,1.064,0.267,1.543
		c0.349,0.479,0.928,0.65,1.513,0.65c0.378,1.282-2.63,6.779-6.301,11.525c-0.526,0.686-0.503,1.638,0.071,2.294
		c0.271,0.319,0.626,0.52,1.022,0.597c-2.157,2.406-2.959,4.415-2.988,4.504c-6.995,14.937-26.566,26.161-26.527,26.161
		c-23.472,9.292-35.275,17.531-42.091,29.412c-1.114,1.938-5.822,1.17-8.086,0.331c-11.041-4.084-17.517-4.871-23.117-2.825
		c-7.92,2.908-12.909,8.08-13.689,14.186c-0.514,4.061,1.022,8.092,3.83,10.024c25.15,17.378,34.011,35.087,34.096,35.27
		c0.331,0.668,1.058,1.046,1.785,1.011c0.751-0.07,1.38-0.591,1.584-1.312c0.976-3.369,0.311-7.062-0.671-10.03
		c1.339,1.401,1.865,2.648,1.895,2.72c0.284,0.727,1.011,1.152,1.779,1.152c0.611-0.035,1.144-0.367,1.454-0.863
		c-0.715,2.914-1.75,4.682-1.756,4.723c-4.684,5.148-5.653,10.521-5.976,14.629c-0.106,1.46-0.101,3.156-0.083,4.906
		c0.024,3.08,0.054,6.561-0.739,8.305c-1.882,4.132-2.458,9.966-2.627,12.832c-1.548,0.242-3.188,0.798-3.812,1.022
		c-0.411,0.147-0.757,0.438-0.969,0.821c-4.649,8.335,2.299,16.651,2.604,17.006c0.357,0.42,0.866,0.633,1.386,0.633
		c0.243,0,0.485-0.048,0.712-0.143c10.787-4.622,12.191-28.483,12.173-29.093c4.867-16.898,12.324-26.355,12.279-26.355
		c4.492-3.913,8.518-7.058,12.064-9.83c6.857-5.354,11.81-9.221,14.381-14.215c1.448-2.813,2.772-5.497,3.851-8.093
		c0.556,0.019,1.111,0.03,1.664,0.03c33.012,0,53.244-29.447,55.786-33.349c12.737-1.318,25.871-13.246,26.427-13.79
		c0.283-0.183,0.461-0.242,0.484-0.271c0.792,0.727,1.194,4.953,0.875,9.014c-1.241,1.561-2.577,4.055-3.311,5.503l-5.71-0.236
		c-0.295,0-0.579,0.041-0.833,0.159c-5.674,2.583-4.835,12.933-4.717,14.098c0.089,0.934,0.875,1.644,1.809,1.644
		c5.923,0,13.418-6.709,15.108-8.299c6.696-2.719,7.802-5.875,7.997-6.921V81.936c0.13-8.89-0.597-11.703-5.379-11.993
		c-3.191-0.189-11.396-0.166-14.458-0.153c-1.354-3.907-1.95-15.25-0.934-20.239c1.141-5.562,3.274-9.185,6.354-10.763
		c2.808-1.425,5.804-0.834,7.27-0.391c1.909,12.649,13.099,15.492,17.266,16.113c0.603,3.83,1.868,6.235,3.842,7.329
		c2.648,1.472,5.538,0.077,7.442-0.845c0.413-0.195,0.791-0.384,1.129-0.508C214.851,58.824,215.041,55.674,214.615,54.574z
		 M35.767,131.325c-1.041-0.779-1.989-1.495-2.751-2.127c-4.031-3.322-5.964-6.295-5.583-8.595c0.42-2.536,3.597-3.859,4.226-4.096
		c4.673-1.768,7.427-2.229,9.023-2.229c1.38,0,1.895,0.343,2.054,0.473c0.369,0.319,0.21,0.981,0.186,1.088
		c-2.092,10.007,4.152,21.373,4.347,21.722c1.868,4.114,2.312,7.927,2.137,11.101C48.986,141.262,41.184,135.398,35.767,131.325z
		 M209.083,57.128c-0.414,0.153-0.893,0.384-1.419,0.639c-1.383,0.667-3.103,1.489-4.107,0.934
		c-0.621-0.337-1.709-1.566-2.188-5.994c-0.095-0.886-0.833-1.59-1.737-1.625c-0.573-0.023-14.104-0.727-15.469-14.162
		c-0.065-0.639-0.461-1.2-1.04-1.466c-0.236-0.101-5.846-2.642-11.308,0.118c-4.149,2.093-6.939,6.567-8.305,13.293
		c-1.105,5.461-0.633,19.789,1.779,23.732c0.331,0.543,0.922,0.875,1.549,0.875c0,0,0.006,0,0.012,0
		c0.124,0,11.62-0.077,15.386,0.136c1.431,0.094,2.093,0.13,1.962,8.352v15.273c-0.301,0.532-1.602,2.305-6.034,4.043
		c-0.225,0.083-0.426,0.219-0.598,0.384c-1.892,1.821-7.075,6.171-11.118,7.276c-0.012-2.997,0.503-7.116,2.37-8.369l6.407,0.26
		c0.722,0.047,1.407-0.378,1.721-1.04c0.608-1.265,2.417-4.835,3.652-6.177c0.267-0.29,0.426-0.662,0.473-1.052
		c0.313-3.257,0.687-11.047-2.582-13.051c-0.71-0.438-2.234-0.975-4.552,0.538c-0.225,0.207-22.302,20.262-34.549,10.427
		c-0.774-0.633-1.915-0.515-2.547,0.271c-0.627,0.78-0.509,1.927,0.271,2.548c2.519,2.033,5.302,3.021,8.198,3.363
		c-5.35,7.341-24.092,29.885-51.687,29.695c2.137-6.596,2.154-12.631-2.347-18.536c-0.618-0.804-1.755-0.951-2.544-0.343
		c-0.798,0.609-0.949,1.75-0.343,2.542c5.32,6.98,3.316,13.796-3.198,26.444c-2.208,4.279-6.898,7.944-13.388,13.01
		c-3.582,2.802-7.643,5.97-12.43,10.185c-0.328,0.396-8.044,10.083-13.231,28.259c-0.322,5.911-2.523,21.273-8.807,25.653
		c-1.375-2.099-3.697-6.674-1.641-11.095c1.386-0.443,2.858-0.757,3.298-0.691c0.526,0.118,1.079-0.023,1.496-0.367
		c0.417-0.342,0.665-0.851,0.677-1.383c0-0.082,0.171-8.251,2.379-13.098c1.126-2.477,1.097-6.213,1.067-9.836
		c-0.015-1.637-0.033-3.228,0.077-4.593c0.272-3.528,1.091-8.146,5.237-12.737c0.266-0.438,6.505-10.835,0.605-23.832
		c-0.062-0.113-5.854-10.651-4.069-19.211c0.299-1.021,0.37-3.15-1.235-4.622c-2.37-2.187-7.226-1.85-14.827,1.017
		c-1.351,0.509-5.798,2.513-6.525,6.898c-0.612,3.706,1.696,7.743,6.851,11.986c0.801,0.662,1.788,1.407,2.881,2.223
		c4.087,3.068,9.714,7.3,11.567,12.053c-1.271-1.105-2.923-2.182-5.03-2.985c-0.739-0.271-1.549-0.065-2.045,0.538
		c-0.497,0.603-0.556,1.448-0.151,2.11c0.745,1.212,2.081,3.907,2.778,6.845c-4.667-6.863-14.419-18.85-31.794-30.866
		c-1.386-0.958-2.695-3.423-2.296-6.585c0.352-2.771,2.296-7.92,11.337-11.23c4.643-1.69,10.604-0.875,20.611,2.825
		c3.251,1.2,10.039,2.353,12.498-1.933c5.302-9.244,14.18-17.52,40.504-27.952c0.842-0.479,20.761-11.892,28.304-27.993
		c0.088-0.225,2.287-5.55,9.771-8.588c0.608-0.266,1.034-0.875,1.081-1.537c0.048-0.668-0.378-1.442-0.951-1.803
		c-0.78-0.503-2.176-0.774-4.676-0.071c2.27-3.658,4.043-7.637,2.914-9.924c-0.136-0.296-0.384-0.686-0.804-1.022
		c1.171-1.851,3.735-4.865,8.73-6.449c0.467-0.142,0.976-0.23,1.584-0.349c1.613-0.301,4.049-0.762,7.885-2.388
		c0.798-0.343,1.247-1.2,1.076-2.057c-0.189-0.852-0.993-1.572-1.821-1.431c-0.07,0.029-3.381,0.041-6.543-1.85
		c4.486-0.272,11.703-1.141,19.169-3.794l0.49-0.166c3.979-1.418,5.468-1.956,13.772,2.075c0.686,0.331,1.519,0.201,2.068-0.343
		c0.55-0.543,0.697-1.371,0.373-2.069c-0.071-0.124-0.869-1.767-2.654-3.398c4.67,0.632,10.894,2.684,17.348,8.275
		c0.402,0.408,1.171,0.786,2.058,0.632c1.111-0.201,1.785-1.075,2.151-1.731c2.979,3.322,6.454,7.974,8.057,12.548
		c2.287,6.579,9.244,26.604,10.131,31.8C211.168,55.833,210.583,56.561,209.083,57.128z"/>
</g>
</svg>