<?xml version="1.0" encoding="iso-8859-1"?>
<!-- Uploaded to: SVG Repo, www.svgrepo.com, Generator: SVG Repo Mixer Tools -->
<!DOCTYPE svg PUBLIC "-//W3C//DTD SVG 1.1//EN" "http://www.w3.org/Graphics/SVG/1.1/DTD/svg11.dtd">
<svg fill="#000000" version="1.1" id="Capa_1" xmlns="http://www.w3.org/2000/svg" xmlns:xlink="http://www.w3.org/1999/xlink" 
	 width="800px" height="800px" viewBox="0 0 221.578 221.577"
	 xml:space="preserve">
<g>
	<path d="M197.308,83.904c-3.783-5.006-11.23-7.583-22.178-7.687c-0.727-7.179-5.172-34.362-31.221-47.744
		c2.648-1.688,6.289-4.891,9.848-10.882c1.489-0.035,3.913-0.429,5.426-2.408c1.626-2.131,1.578-5.296-0.023-9.014
		c-0.053-0.301-0.396-1.868-2.275-3.026c-2.748-1.693-7.312-1.59-13.583,0.31c-2.246-0.26-11.284-1.149-15.812,1.271l-3.617,0.606
		c-1.265-2.163-3.807-5.636-6.691-5.308c-0.626,0.07-1.176,0.464-1.441,1.04c-0.236,0.514-23.085,50.969,6.696,76.293
		c-3.038,4.389-13.201,18.51-24.816,28.877c-3.118,2.781-8.68,8.621-10.84,16.193c-0.039,0.07-1.043,1.85-4.776,2.5
		c-12.596,2.175-13.414,3.115-20.224,14.676c-2.485,4.227-5.908,10.014-11.177,17.934c-0.122,0.166-11.757,16.302-26.613,12.058
		c-0.866-0.242-1.738,0.16-2.137,0.946c-0.375,0.786-0.145,1.743,0.562,2.264c0.543,0.391,13.541,9.806,29.911,5.125
		c13.503-3.849,25.005-15.995,34.241-36.139c1.416,7.199,5.609,15.119,15.356,16.219c0.393,1.035,1.046,4.93-4.92,15.422
		c-1.46,1.276-2.447,4.905,2.571,15.024c0.036,0.095,3.373,9.741,3.228,15.285c-0.006,0.308,0.065,0.604,0.186,0.869
		c0.121,0.225,1.091,2.033,3.431,2.5v0.308c0,0.172,0.027,0.331,0.074,0.496c0.647,2.276,3.727,6.354,10.689,5.355
		c0.733-0.101,1.336-0.633,1.508-1.365c0.064-0.242,0.124-0.508,0.147-0.798c1.052,1.578,2.039,2.813,2.891,3.499
		c0.159,0.13,0.343,0.236,0.538,0.313c0.159,0.06,1.146,0.384,2.488,0.384c0.023,0,0.053,0,0.083,0
		c-0.065,1.496,0.112,3.275,0.992,4.492c0.621,0.84,1.484,1.342,2.441,1.437c0.898,0.124,2.767,0.349,4.782,0.349
		c2.417,0,5.042-0.319,6.472-1.513c0.769-0.633,1.194-1.489,1.241-2.583c-0.13-3.352-2.459-9.906-10.03-10.622
		c-0.059-0.023-6.348-2.659-10.344-19.021c0.503-1.992,2.813-10.87,6.922-21.355c0.443-1.141,0.922-2.654,1.442-4.304
		c1.135-3.629,2.547-8.127,4.208-10.131c3.534-4.268,9.569-13.736,4.835-24.134c5.84-2.57,24.589-12.028,25.085-27.633
		c5.255,0.233,12.206-1.182,19.967-7.282c0.852,0.225,2.737,1.581,3.481,2.119l0.532,0.382c1.1,0.774,1.88,2.518,1.897,4.241
		c0.018,1.176-0.308,2.84-1.934,4.082c-0.425,0.325-0.691,0.833-0.715,1.386l-0.118,3.292c-1.288,0.789-3.352,2.426-4.179,5.228
		c-0.964,3.257,0.006,6.998,2.891,11.136c0.219,0.313,0.531,0.55,0.893,0.668c0.254,0.101,1.619,0.479,3.221-0.515
		c2.494-1.524,4.209-5.55,5.09-11.851c0.147-0.745,0.549-1.649,0.413-1.779c0.509,0.112,1.04,0.006,1.466-0.29
		c0.414-0.301,0.697-0.774,0.751-1.294c0.302-2.988,1.4-11.405,2.938-14.753C199.578,94.803,201.215,89.084,197.308,83.904z
		 M196.12,93.769c-1.607,3.443-2.647,11.169-3.026,14.308c-0.124,0.062-0.242,0.13-0.36,0.207c-1.685,1.09-2.27,3.667-2.399,4.283
		c-0.904,6.555-2.519,8.771-3.228,9.356c-1.762-2.784-2.376-5.172-1.82-7.11c0.709-2.447,3.162-3.505,3.174-3.511
		c0.662-0.266,1.111-0.905,1.135-1.625l0.124-3.541c1.779-1.652,2.725-3.91,2.678-6.446c-0.053-2.894-1.383-5.695-3.422-7.149
		l-0.515-0.369c-2.43-1.75-5.45-3.928-7.602-2.22c-14.581,11.633-25.599,4.732-26.066,4.437c-0.833-0.544-1.962-0.316-2.5,0.526
		c-0.556,0.836-0.331,1.957,0.515,2.506c0.213,0.15,2.612,1.652,6.472,2.432c-0.159,13.82-18.406,22.75-23.282,24.873
		c-1.46-2.182-3.387-4.386-6-6.573c-0.768-0.638-1.896-0.538-2.559,0.231c-0.639,0.768-0.538,1.902,0.23,2.559
		c12.873,10.752,8.452,21.592,2.494,28.791c-2.122,2.554-3.582,7.229-4.883,11.355c-0.484,1.561-0.928,2.996-1.359,4.066
		c-4.74,12.105-7.157,22.165-7.182,22.271c-0.07,0.271-0.07,0.562,0,0.84c4.451,18.689,11.94,21.733,13.182,22.105
		c6.69,0.674,7.176,6.579,7.276,6.893c-0.662,0.703-4.759,0.881-8.447,0.396c-0.39-0.413-0.419-2.506-0.064-4.231
		c0.136-0.662-0.101-1.359-0.627-1.779c-0.532-0.432-1.241-0.526-1.873-0.266c-0.97,0.413-1.969,0.277-2.453,0.165
		c-3.363-3.21-10.326-18.122-14.28-27.604c-0.284-0.691-1.035-1.081-1.7-1.123c-0.739,0.006-1.398,0.473-1.664,1.165
		c-0.801,2.086,0.618,9.008,1.531,12.938c0.122,0.514,0.446,0.951,0.913,1.199c1.502,0.786,2.004,3.28,2.078,4.173
		c0.047,0.604,0.387,1.147,0.919,1.442c3.165,1.773,3.709,4.445,3.721,6.006c-3.801,0.118-4.927-2.01-5.216-2.678v-2.264
		c0-0.65-0.346-1.247-0.896-1.578c-0.55-0.325-1.247-0.325-1.818-0.006l-0.428,0.248c-0.207-0.071-0.37-0.171-0.467-0.278
		c-0.083-6.206-3.298-15.533-3.529-16.147c-3.992-8.086-3.466-10.593-3.333-11c0.145-0.136,0.284-0.302,0.375-0.468
		c9.152-15.946,5.272-20.002,3.869-20.853c-0.249-0.153-0.535-0.242-0.825-0.26c-14.236-1.017-13.417-19.329-13.376-20.108
		c0.047-0.881-0.556-1.667-1.422-1.868c-0.866-0.165-1.737,0.272-2.077,1.1c-9.236,23.135-20.936,36.871-34.752,40.843
		c-7.392,2.135-14.121,0.964-18.995-0.715c12.324-1.838,20.75-13.465,21.208-14.115c5.37-8.05,8.795-13.884,11.308-18.146
		c6.475-10.982,6.475-10.982,17.714-12.944c5.642-0.976,7.258-4.138,7.524-4.759c2.119-7.265,7.628-12.767,9.897-14.8
		c14.198-12.673,25.854-30.195,26.356-30.934c0.526-0.786,0.354-1.844-0.39-2.426c-26.584-20.865-11.118-62.947-7.619-71.47
		c0.833,0.745,1.998,2.276,2.891,4.037c0.366,0.709,1.182,1.126,1.915,0.976l5.213-0.872c0.225-0.035,0.438-0.121,0.633-0.236
		c3.127-1.871,11.295-1.295,14.191-0.919c0.26,0.035,0.526,0.006,0.774-0.068c8.636-2.687,11.343-0.966,11.697,0.127
		c1.141,2.749,1.371,4.812,0.615,5.805c-0.769,1.022-2.702,1.061-3.334,0.981c-0.728-0.109-1.448,0.26-1.814,0.907
		c-5.811,10.308-11.81,11.856-11.846,11.869c-0.774,0.166-1.354,0.813-1.424,1.599c-0.071,0.786,0.372,1.53,1.093,1.847
		c31.263,13.557,32.663,47.591,32.663,47.937c0.029,0.987,0.798,1.658,1.845,1.761c10.509-0.115,17.69,2.003,20.895,6.198
		C197.166,89.702,196.09,93.769,196.12,93.769C196.114,93.769,196.114,93.769,196.12,93.769z"/>
</g>
</svg>