<?xml version="1.0" encoding="utf-8"?>
<svg width="162.0011px" height="99.02356px" viewBox="0 0 162.0011 99.02356" version="1.1" xmlns:xlink="http://www.w3.org/1999/xlink" xmlns="http://www.w3.org/2000/svg">
  <path d="M162.001 19.7019L155.283 14.0333L151.575 14.2498L145.514 2.79678L144.927 1.68352L144.255 1.64005L118.584 0L107.556 5.7811L100.761 14.6053L69.6036 12.5749L68.9498 12.5314L67.9734 12.8059L50.2373 17.8138L45.1107 22.543L38.8701 20.7444L38.1178 20.5253L37.2662 20.66L19.8086 23.4039L14.3135 28.5534L9.83215 38.9955L9.82367 38.9955L0 61.5956L17.4253 47.9365L20.3401 37.7646L37.9913 32.8837L42.8029 35.2295L41.3824 45.0016L44.3397 45.0732L45.2278 46.6681L30.905 62.7506L34.2036 76.3637L28.9327 86.7999L39.9203 91.8428L44.2863 64.1836L49.4706 56.4828L47.0737 66.7118L71.8672 81.8439L73.3955 99.0236L84.5148 97.4014L81.6781 87.8262L81.0591 85.7361L80.9988 85.5238L80.9148 85.4761L64.9897 56.834L73.2486 45.4457L78.7327 39.472L103.64 49.4836L101.955 60.5693L95.0177 75.6844L94.5219 76.7704L94.3317 77.2818L90.904 86.4495L99.2859 91.8607L102.132 85.2988L102.662 84.0781L102.709 83.5752L103.378 75.9265L115.717 56.0276L135.106 58.7545L130.166 69.3773L127.941 69.0867L123.724 78.8826L136.029 72.256L136.521 71.9917L137.076 70.8392L142.414 59.7842L142.75 59.0878L142.75 58.2064L142.75 53.7133L122.163 42.6626L131.269 18.6611L138.125 45.2863L143.91 43.6523L150.558 25.3406L157.19 28.1519L154.095 19.7028L162.001 19.7028L162.001 19.7019ZM15.5319 29.6138L20.5414 24.9196L37.2611 22.2856L37.2611 31.4081L11.8928 38.4244L11.791 38.4542L15.5319 29.6138L15.5319 29.6138ZM16.0303 46.9886L3.99908 56.4095L10.9877 40.344L18.5283 38.2599L16.0303 46.9886L16.0303 46.9886ZM82.4448 96.0639L74.844 97.1763L73.5721 82.8796L79.6387 86.5808L82.4448 96.0639L82.4448 96.0639ZM98.5651 89.4799L92.8611 85.8008L95.5679 78.5544L100.914 84.0517L98.5651 89.4799L98.5651 89.4799ZM38.8709 31.5181L38.8709 22.4194L44.428 24.0237L43.0466 33.5528L38.8709 31.5181L38.8709 31.5181ZM42.1627 67.3349L38.6612 89.4978L31.1122 86.031L35.7124 76.9101L39.2538 71.6516L42.1627 67.3349L42.1627 67.3349ZM44.8789 60.427L44.8789 60.427L43.8549 61.9502L35.4042 74.5029L32.666 63.1922L46.0616 48.1556L47.9117 51.4732L49.2677 53.9077L44.8789 60.427L44.8789 60.427ZM78.1316 83.7755L71.6863 79.845L71.6863 79.845L48.8975 65.9412L50.993 57.0079L57.0205 67.8165L63.9471 58.272L78.1316 83.7755L78.1316 83.7755ZM64.1271 55.2843L64.1271 55.2843L57.1962 64.8331L51.1467 53.9852L51.1467 53.9852L46.3605 45.398L46.3605 45.398L46.2009 45.1124L71.0767 45.7074L64.1271 55.2843L64.1271 55.2843ZM72.2866 44.1253L43.4346 43.4366L43.4346 43.4366L43.2317 43.4323L46.0795 23.8412L51.0464 19.2578L68.5474 14.3163L72.0438 23.5992L77.5992 38.34L72.2866 44.1253L72.2866 44.1253ZM79.142 37.901L73.8412 23.8293L70.2234 14.2285L100.501 16.2027L106.097 36.6658L109.029 47.3918L107.925 47.5785L104.615 48.1411L79.142 37.901L79.142 37.901ZM101.803 75.4031L101.221 82.0604L96.22 76.9187L103.458 61.1456L105.234 49.6746L109.456 48.956L109.685 48.9168L109.779 49.0404L110.948 50.6225L114.332 55.1974L101.803 75.4031L101.803 75.4031ZM133.606 71.7334L127.009 75.282L128.922 70.8409L130.453 71.0404L132.442 71.4734L133.606 71.7334L133.606 71.7334ZM135.459 70.4863L131.786 69.6893L136.762 58.9983L138.344 59.2148L140.732 59.5524L135.459 70.4863L135.459 70.4863ZM141.133 54.6783L141.133 57.9814L137.477 57.4665L135.813 57.233L135.813 57.233L115.751 54.4106L112.668 50.2414L111.28 48.3678L117.897 45.3895L121.119 43.9395L141.133 54.6783L141.133 54.6783ZM120.516 42.441L117.321 43.8799L110.56 46.9204L107.624 36.168L102.002 15.6052L108.452 7.12109L118.921 1.63409L141.521 3.07724L137.546 5.17078L130.535 15.866L130.57 15.9939L120.516 42.441L120.516 42.441ZM142.669 42.325L139.254 43.2925L132.265 16.161L138.664 6.40932L144.1 3.54605L151.603 17.7269L149.067 24.7175L149.067 24.7175L142.669 42.325L142.669 42.325ZM154.388 25.2247L151.093 23.8284L152.477 20.0088L154.388 25.2247L154.388 25.2247ZM153.326 17.6587L153.352 17.6024L153.209 17.3364L152.649 15.8064L154.74 15.687L157.603 18.0977L153.489 18.0977L153.326 17.6587L153.326 17.6587Z" id="Group" fill="#000000" fill-rule="evenodd" stroke="none" />
</svg>